<svg xmlns="http://www.w3.org/2000/svg" version="1.1" xmlns:xlink="http://www.w3.org/1999/xlink" xmlns:svgjs="http://svgjs.dev/svgjs" width="1024" height="722" preserveAspectRatio="none" viewBox="0 0 1024 722">
    <g mask="url(&quot;#SvgjsMask1014&quot;)" fill="none">
        <g transform="translate(0, 7.22)" stroke-linecap="round" stroke="url(&quot;#SvgjsLinearGradient1015&quot;)">
            <path d="M16 78.13 L16 643.87" stroke-width="24"></path>
            <path d="M48 33.129999999999995 L48 297.13" stroke-width="24"></path>
            <path d="M48 333.13 L48 525.13" stroke-width="24"></path>
            <path d="M48 561.13 L48 688.88" stroke-width="24"></path>
            <path d="M80 114.64 L80 450.64" stroke-width="24"></path>
            <path d="M80 486.64 L80 534.64" stroke-width="24"></path>
            <path d="M80 570.64 L80 607.36" stroke-width="24"></path>
            <path d="M112 286.08 L112 435.92" stroke-width="24"></path>
            <path d="M144 123.5 L144 267.5" stroke-width="24"></path>
            <path d="M144 303.5 L144 598.5" stroke-width="24"></path>
            <path d="M176 37.6 L176 493.6" stroke-width="24"></path>
            <path d="M176 529.6 L176 553.6" stroke-width="24"></path>
            <path d="M176 589.6 L176 684.4" stroke-width="24"></path>
            <path d="M208 171.38 L208 195.38" stroke-width="24"></path>
            <path d="M208 231.38 L208 303.38" stroke-width="24"></path>
            <path d="M208 339.38 L208 550.62" stroke-width="24"></path>
            <path d="M240 210.43 L240 354.43" stroke-width="24"></path>
            <path d="M240 390.43 L240 438.43" stroke-width="24"></path>
            <path d="M240 474.43 L240 511.58000000000004" stroke-width="24"></path>
            <path d="M272 289.36 L272 337.36" stroke-width="24"></path>
            <path d="M272 373.36 L272 432.64" stroke-width="24"></path>
            <path d="M304 257.28 L304 305.28" stroke-width="24"></path>
            <path d="M304 341.28 L304 464.72" stroke-width="24"></path>
            <path d="M336 300.5 L336 348.5" stroke-width="24"></path>
            <path d="M336 384.5 L336 421.5" stroke-width="24"></path>
            <path d="M368 78.6 L368 643.4" stroke-width="24"></path>
            <path d="M400 102.07 L400 198.07" stroke-width="24"></path>
            <path d="M400 234.07 L400 619.92" stroke-width="24"></path>
            <path d="M432 90.31 L432 186.31" stroke-width="24"></path>
            <path d="M432 222.31 L432 631.69" stroke-width="24"></path>
            <path d="M464 20.9 L464 572.9" stroke-width="24"></path>
            <path d="M464 608.9 L464 632.9" stroke-width="24"></path>
            <path d="M464 668.9 L464 701.1" stroke-width="24"></path>
            <path d="M496 312.05 L496 336.05" stroke-width="24"></path>
            <path d="M496 372.05 L496 409.95" stroke-width="24"></path>
            <path d="M528 280.73 L528 304.73" stroke-width="24"></path>
            <path d="M528 340.73 L528 364.73" stroke-width="24"></path>
            <path d="M528 400.73 L528 441.27" stroke-width="24"></path>
            <path d="M560 298.95 L560 423.05" stroke-width="24"></path>
            <path d="M592 160.17 L592 328.16999999999996" stroke-width="24"></path>
            <path d="M592 364.16999999999996 L592 561.83" stroke-width="24"></path>
            <path d="M624 240.04 L624 481.96" stroke-width="24"></path>
            <path d="M656 196.97 L656 316.97" stroke-width="24"></path>
            <path d="M656 352.97 L656 448.97" stroke-width="24"></path>
            <path d="M656 484.97 L656 525.03" stroke-width="24"></path>
            <path d="M688 145.63 L688 289.63" stroke-width="24"></path>
            <path d="M688 325.63 L688 421.63" stroke-width="24"></path>
            <path d="M688 457.63 L688 576.37" stroke-width="24"></path>
            <path d="M720 171.18 L720 411.18" stroke-width="24"></path>
            <path d="M720 447.18 L720 471.18" stroke-width="24"></path>
            <path d="M720 507.18 L720 550.82" stroke-width="24"></path>
            <path d="M752 289.99 L752 313.99" stroke-width="24"></path>
            <path d="M752 349.99 L752 432.01" stroke-width="24"></path>
            <path d="M784 294.71 L784 427.29" stroke-width="24"></path>
            <path d="M816 16.43 L816 705.58" stroke-width="24"></path>
            <path d="M848 224.92 L848 272.91999999999996" stroke-width="24"></path>
            <path d="M848 308.91999999999996 L848 497.08" stroke-width="24"></path>
            <path d="M880 183.26 L880 538.74" stroke-width="24"></path>
            <path d="M912 191.8 L912 263.8" stroke-width="24"></path>
            <path d="M912 299.8 L912 347.8" stroke-width="24"></path>
            <path d="M912 383.8 L912 530.2" stroke-width="24"></path>
            <path d="M944 47.62 L944 674.38" stroke-width="24"></path>
            <path d="M976 98.27 L976 482.27" stroke-width="24"></path>
            <path d="M976 518.27 L976 623.73" stroke-width="24"></path>
            <path d="M1008 88.58 L1008 304.58" stroke-width="24"></path>
            <path d="M1008 340.58 L1008 412.58" stroke-width="24"></path>
            <path d="M1008 448.58 L1008 633.41" stroke-width="24"></path>
        </g>
    </g>
    <defs>
        <mask id="SvgjsMask1014">
            <rect width="1024" height="722" fill="#ffffff"></rect>
        </mask>
        <linearGradient x1="0" y1="361" x2="1024" y2="361" gradientUnits="userSpaceOnUse" id="SvgjsLinearGradient1015">
            <stop stop-color="rgba(22, 22, 29, 1)" offset="0"></stop>
            <stop stop-color="rgba(57, 0, 0, 1)" offset="1"></stop>
        </linearGradient>
    </defs>
</svg>